<svg width="89" height="31" viewBox="0 0 89 31" fill="none" xmlns="http://www.w3.org/2000/svg">
<path d="M46.932 14.438C46.932 14.97 46.792 15.4273 46.512 15.81C46.2413 16.1927 45.8727 16.4867 45.406 16.692C44.9393 16.8973 44.426 17 43.866 17H39.12V7.06H44.244C44.7107 7.06 45.112 7.186 45.448 7.438C45.7933 7.68067 46.0547 7.998 46.232 8.39C46.4187 8.77267 46.512 9.174 46.512 9.594C46.512 10.0793 46.386 10.5367 46.134 10.966C45.8913 11.386 45.5413 11.6987 45.084 11.904C45.6533 12.072 46.1013 12.38 46.428 12.828C46.764 13.2667 46.932 13.8033 46.932 14.438ZM45.322 14.144C45.322 13.864 45.2613 13.612 45.14 13.388C45.028 13.1547 44.8693 12.968 44.664 12.828C44.468 12.6787 44.2347 12.604 43.964 12.604H40.688V15.642H43.866C44.146 15.642 44.3933 15.5767 44.608 15.446C44.832 15.306 45.0047 15.124 45.126 14.9C45.2567 14.6667 45.322 14.4147 45.322 14.144ZM40.688 8.418V11.344H43.572C43.8333 11.344 44.0667 11.2833 44.272 11.162C44.4773 11.0313 44.6407 10.8587 44.762 10.644C44.8833 10.42 44.944 10.168 44.944 9.888C44.944 9.59867 44.888 9.34667 44.776 9.132C44.664 8.908 44.51 8.73533 44.314 8.614C44.1273 8.48333 43.908 8.418 43.656 8.418H40.688ZM52.6322 7.06H54.1162L57.9802 17H56.3282L55.2782 14.298H51.4422L50.4062 17H48.7402L52.6322 7.06ZM54.9702 13.136L53.3742 8.782L51.7222 13.136H54.9702ZM59.5966 11.96C59.5966 11.3533 59.704 10.7607 59.9186 10.182C60.1333 9.594 60.446 9.062 60.8566 8.586C61.2766 8.10067 61.7853 7.718 62.3826 7.438C62.98 7.14867 63.6566 7.004 64.4126 7.004C65.3086 7.004 66.0833 7.20933 66.7366 7.62C67.39 8.02133 67.8753 8.53933 68.1926 9.174L66.9606 10C66.774 9.59867 66.536 9.28133 66.2466 9.048C65.9666 8.81467 65.6586 8.65133 65.3226 8.558C64.996 8.46467 64.674 8.418 64.3566 8.418C63.834 8.418 63.3766 8.52533 62.9846 8.74C62.5926 8.94533 62.2613 9.22067 61.9906 9.566C61.7293 9.91133 61.5286 10.2987 61.3886 10.728C61.258 11.1573 61.1926 11.5867 61.1926 12.016C61.1926 12.492 61.272 12.954 61.4306 13.402C61.5893 13.8407 61.8086 14.2327 62.0886 14.578C62.378 14.914 62.7186 15.18 63.1106 15.376C63.5026 15.572 63.932 15.67 64.3986 15.67C64.716 15.67 65.0473 15.614 65.3926 15.502C65.738 15.39 66.0553 15.2173 66.3446 14.984C66.6433 14.7413 66.8766 14.424 67.0446 14.032L68.3466 14.774C68.1413 15.2687 67.8193 15.6887 67.3806 16.034C66.9513 16.3793 66.466 16.6407 65.9246 16.818C65.3926 16.9953 64.8653 17.084 64.3426 17.084C63.6426 17.084 63.0033 16.9393 62.4246 16.65C61.846 16.3513 61.3466 15.9593 60.9266 15.474C60.5066 14.9793 60.18 14.4287 59.9466 13.822C59.7133 13.206 59.5966 12.5853 59.5966 11.96ZM71.197 17V7.074H72.765V12.184L77.441 7.06H79.177L75.257 11.456L79.401 17H77.623L74.263 12.45L72.765 14.004V17H71.197Z" fill="black"/>
<path d="M28 13.5C28.8284 13.5 29.5 12.8284 29.5 12C29.5 11.1716 28.8284 10.5 28 10.5L28 13.5ZM0.939341 10.9393C0.353554 11.5251 0.353554 12.4749 0.93934 13.0607L10.4853 22.6066C11.0711 23.1924 12.0208 23.1924 12.6066 22.6066C13.1924 22.0208 13.1924 21.0711 12.6066 20.4853L4.12132 12L12.6066 3.51472C13.1924 2.92893 13.1924 1.97918 12.6066 1.3934C12.0208 0.80761 11.0711 0.80761 10.4853 1.3934L0.939341 10.9393ZM28 10.5L2 10.5L2 13.5L28 13.5L28 10.5Z" fill="black"/>
</svg>
