<svg width="26" height="30" viewBox="0 0 26 30" fill="none" xmlns="http://www.w3.org/2000/svg">
<path d="M17.639 8.87399L17.739 8.87441V8.87399V7.16899H23.0539L23.0539 27.1454H2.94618V7.16899H8.3188V8.87301L8.31876 8.87544L8.31876 8.88462C8.31882 8.89231 8.31905 8.90309 8.31971 8.91652C8.32102 8.94336 8.32403 8.98099 8.33082 9.02587C8.34432 9.11516 8.37316 9.23577 8.43522 9.35757C8.49759 9.47996 8.59405 9.60448 8.74221 9.69799C8.89061 9.79165 9.08482 9.85036 9.33637 9.85036C9.6101 9.85036 9.81679 9.79252 9.97134 9.69897C10.1263 9.60515 10.2224 9.47933 10.2807 9.3545C10.3385 9.23068 10.3592 9.10832 10.3657 9.01812C10.3689 8.97274 10.3687 8.9347 10.3676 8.90758C10.367 8.89399 10.3663 8.88308 10.3656 8.87528L10.365 8.86884V7.16899H15.6928V8.87112L15.6928 8.87135L15.6924 8.88062C15.6922 8.88839 15.692 8.89926 15.6921 8.91282C15.6924 8.93988 15.694 8.97784 15.6992 9.02312C15.7097 9.11317 15.7348 9.23501 15.7948 9.35817C15.8552 9.48207 15.9511 9.60778 16.1018 9.70196C16.2525 9.79613 16.4517 9.85477 16.7122 9.85477C16.9596 9.85477 17.1519 9.79554 17.3 9.70159C17.4477 9.6079 17.5456 9.48333 17.6102 9.36108C17.6745 9.23932 17.7064 9.11866 17.7224 9.02922C17.7305 8.98427 17.7346 8.94658 17.7367 8.91971C17.7378 8.90626 17.7383 8.89547 17.7386 8.88779L17.7389 8.87862L17.739 8.87588L17.739 8.87498L17.739 8.87465V8.87452C17.739 8.87446 17.739 8.87441 17.639 8.87399ZM23.1539 5.21444H17.7389V3.63183C17.7389 2.12041 16.4473 0.9 14.8697 0.9H11.188C9.6104 0.9 8.31877 2.12041 8.31877 3.63183V5.21444H2.84615C1.77624 5.21444 0.9 6.04008 0.9 7.06899V27.2454C0.9 28.2744 1.77624 29.1 2.84615 29.1H23.1538C24.2238 29.1 25.1 28.2744 25.1 27.2454V7.06899C25.1 6.04008 24.2238 5.21444 23.1539 5.21444ZM10.365 3.63183C10.365 3.20753 10.7289 2.85455 11.188 2.85455H14.8697C15.3289 2.85455 15.6928 3.20753 15.6928 3.63183V5.21444H10.365V3.63183Z" fill="black" stroke="black" stroke-width="0.2"/>
</svg>
