<svg width="76" height="31" viewBox="0 0 76 31" fill="none" xmlns="http://www.w3.org/2000/svg">
<path d="M2.688 9.972V17H1.12V7.06H2.408L8.036 14.242V7.074H9.618V17H8.246L2.688 9.972ZM20.0704 15.614V17H13.2524V7.06H19.9444V8.446H14.8204V11.274H19.2584V12.576H14.8204V15.614H20.0704ZM23.718 7.06L26.462 10.966L29.206 7.06H30.942L27.358 12.1L30.83 17H29.094L26.462 13.234L23.83 17H22.08L25.552 12.1L21.968 7.06H23.718ZM40.7507 8.446H37.4467V17H35.8647V8.446H32.5467V7.06H40.7507V8.446Z" fill="black"/>
<path d="M48 10.5C47.1716 10.5 46.5 11.1716 46.5 12C46.5 12.8284 47.1716 13.5 48 13.5L48 10.5ZM75.0607 13.0607C75.6464 12.4749 75.6464 11.5251 75.0607 10.9393L65.5147 1.3934C64.9289 0.80761 63.9792 0.80761 63.3934 1.3934C62.8076 1.97918 62.8076 2.92893 63.3934 3.51472L71.8787 12L63.3934 20.4853C62.8076 21.0711 62.8076 22.0208 63.3934 22.6066C63.9792 23.1924 64.9289 23.1924 65.5147 22.6066L75.0607 13.0607ZM48 13.5L74 13.5L74 10.5L48 10.5L48 13.5Z" fill="black"/>
</svg>
