<svg width="52" height="52" viewBox="0 0 52 52" fill="none" xmlns="http://www.w3.org/2000/svg">
<circle cx="26" cy="26" r="26" fill="white"/>
<path d="M19.5 38V38.5H20H22.9287H23.4287V38V26.7057H25.9584C29.4485 26.7057 32.3096 26.1531 34.3159 25.0023C36.3536 23.8334 37.5 22.0477 37.5 19.6914C37.5 18.5282 37.22 17.5314 36.6598 16.7002C36.1015 15.8716 35.2884 15.2424 34.278 14.7724C32.2759 13.841 29.4225 13.5 25.9584 13.5H20H19.5V14V38ZM23.4287 25.26V14.9457H25.8911C28.3998 14.9457 30.3483 15.5062 31.6551 16.4422C32.9455 17.3665 33.6386 18.674 33.6386 20.2743C33.6386 21.8683 32.9519 23.084 31.6721 23.9233C30.3666 24.7795 28.4144 25.26 25.8911 25.26H23.4287Z" fill="black" stroke="black"/>
</svg>
